<!DOCTYPE svg PUBLIC "-//W3C//DTD SVG 1.1//EN" "http://www.w3.org/Graphics/SVG/1.1/DTD/svg11.dtd">
<!-- Uploaded to: SVG Repo, www.svgrepo.com, Transformed by: SVG Repo Mixer Tools -->
<svg fill="#0049F8" height="800px" width="800px" version="1.1" id="Layer_1" xmlns="http://www.w3.org/2000/svg" xmlns:xlink="http://www.w3.org/1999/xlink" viewBox="0 0 512.003 512.003" xml:space="preserve" stroke="#0049F8">
<g id="SVGRepo_bgCarrier" stroke-width="0"/>
<g id="SVGRepo_tracerCarrier" stroke-linecap="round" stroke-linejoin="round"/>
<g id="SVGRepo_iconCarrier"> <g> <g> <path d="M148.847,326.461l-63.3,23.399c-2.262,0.835-4.583,1.233-6.861,1.233c-8.051,0-15.618-4.946-18.572-12.939 c-3.791-10.257,1.451-21.643,11.706-25.435l71.414-26.398c-14.22-20.374-37.821-33.715-64.551-33.715 C35.227,252.605,0,287.832,0,331.288s35.227,78.683,78.683,78.683c40.774,0,74.302-31.016,78.284-70.74 C153.571,334.699,150.838,330.143,148.847,326.461z"/> </g> </g> <g> <g> <path d="M433.32,252.605c-0.494,0-0.981,0.028-1.472,0.037l20.536,73.304c2.949,10.529-3.195,21.455-13.723,24.404 c-1.787,0.5-3.585,0.739-5.352,0.739c-8.656,0-16.604-5.719-19.055-14.463l-20.54-73.319 c11.237-6.561,24.243-10.411,38.134-10.667l-15.107-53.922c0.573-0.055,1.148-0.144,1.722-0.305 c5.264-1.476,8.335-6.939,6.861-12.204l-7.767-27.725c-1.474-5.264-6.935-8.336-12.202-6.862 c-0.573,0.161-1.114,0.376-1.631,0.626l-7.497-26.747c-2.048-7.309-8.096-12.805-15.567-14.146l-50.188-9.008 c-10.75-1.928-21.053,5.225-22.983,15.989c-1.932,10.762,5.227,21.053,15.989,22.984l37.969,6.815l5.509,19.666l-36.748,9.283 c-4.939-5.252-12.565-7.624-19.953-5.474l-21.118,6.141c-6.603,1.92-11.435,6.979-13.357,13.08l-43.654,11.026L82.994,168.592 c-10.67-2.385-21.254,4.341-23.634,15.012c-2.38,10.673,4.341,21.254,15.014,23.634l53.431,11.92l36.038,8.039l36.043,36.044 c3.636,3.638,3.882,9.454,0.565,13.385l-34.144,40.454c5.761,10.457,14.864,21.885,21.414,21.885h110.265 c12.489,0,24.228-4.864,33.058-13.694s13.694-20.57,13.694-33.058v-77.96l19.798-5.001l13.106-3.31l16.072,57.367 c-12.209,7.129-22.32,17.45-29.2,29.816c-5.627,10.113-9.083,21.594-9.749,33.823c-0.078,1.437-0.128,2.881-0.128,4.338 c0,43.456,35.227,78.683,78.683,78.683c43.456,0,78.683-35.227,78.683-78.683S476.775,252.605,433.32,252.605z"/> </g> </g> </g>
</svg>